<?xml version="1.0" encoding="utf-8"?>
<!-- Generator: Adobe Illustrator 16.0.0, SVG Export Plug-In . SVG Version: 6.00 Build 0)  -->
<!DOCTYPE svg PUBLIC "-//W3C//DTD SVG 1.1//EN" "http://www.w3.org/Graphics/SVG/1.1/DTD/svg11.dtd">
<svg version="1.1" xmlns="http://www.w3.org/2000/svg" xmlns:xlink="http://www.w3.org/1999/xlink" x="0px" y="0px"
	 width="390.589px" height="390.589px" viewBox="0 0 390.589 390.589" enable-background="new 0 0 390.589 390.589"
	 xml:space="preserve">
<g id="Layer_2">
</g>
<g id="Layer_1">
	<circle display="none" fill="#00A651" cx="330.399" cy="241.6" r="171.199"/>
	
		<rect x="53.627" y="53.627" fill="none" stroke="#FFFFFF" stroke-width="19" stroke-miterlimit="10" width="283.335" height="283.334"/>
	<g>
		<path fill="#FFFFFF" d="M156.965,123.224h18.848v100.684c0,13.607-4.086,24.252-12.256,31.934
			c-8.171,7.683-19.06,11.523-32.666,11.523c-14.128,0-25.131-3.613-33.008-10.84c-7.878-7.227-11.816-17.35-11.816-30.371h18.75
			c0,8.139,2.229,14.486,6.689,19.043c4.458,4.558,10.921,6.836,19.385,6.836c7.747,0,14.014-2.441,18.799-7.324
			s7.21-11.719,7.275-20.508V123.224z"/>
		<path fill="#FFFFFF" d="M207.746,265.412V123.224h46.484c15.43,0,27.035,3.19,34.814,9.57c7.779,6.381,11.67,15.82,11.67,28.32
			c0,6.641-1.889,12.517-5.664,17.627c-3.775,5.111-8.92,9.066-15.43,11.865c7.682,2.148,13.754,6.234,18.213,12.256
			c4.459,6.022,6.689,13.2,6.689,21.533c0,12.761-4.135,22.787-12.402,30.078c-8.268,7.292-19.955,10.938-35.059,10.938H207.746z
			 M226.496,183.869h28.32c8.203,0,14.762-2.054,19.678-6.164c4.916-4.111,7.373-9.689,7.373-16.736
			c0-7.829-2.279-13.522-6.836-17.078c-4.557-3.555-11.49-5.334-20.801-5.334h-27.734V183.869z M226.496,198.908v51.172h30.957
			c8.725,0,15.609-2.262,20.654-6.787c5.045-4.524,7.568-10.758,7.568-18.701c0-17.122-9.311-25.684-27.93-25.684H226.496z"/>
	</g>
</g>
</svg>
