<?xml version="1.0" encoding="utf-8"?>
<!-- Generator: Adobe Illustrator 21.0.0, SVG Export Plug-In . SVG Version: 6.00 Build 0)  -->
<svg version="1.1" id="Layer_1" xmlns="http://www.w3.org/2000/svg" xmlns:xlink="http://www.w3.org/1999/xlink" x="0px" y="0px"
	 viewBox="0 0 302.3 302.3" style="enable-background:new 0 0 302.3 302.3;" xml:space="preserve">
<style type="text/css">
	.st0{display:none;}
	.st1{fill:none;stroke:#000000;stroke-width:19;stroke-miterlimit:10;}
</style>
<g id="Layer_2" class="st0">
</g>
<g id="Layer_1_1_">
	<rect x="9.5" y="9.5" class="st1" width="283.3" height="283.3"/>
	<g>
		<path d="M112.8,79.1h18.8v100.7c0,13.6-4.1,24.3-12.3,31.9c-8.2,7.7-19.1,11.5-32.7,11.5c-14.1,0-25.1-3.6-33-10.8
			c-7.9-7.2-11.8-17.4-11.8-30.4h18.8c0,8.1,2.2,14.5,6.7,19c4.5,4.6,10.9,6.8,19.4,6.8c7.7,0,14-2.4,18.8-7.3s7.2-11.7,7.3-20.5
			L112.8,79.1L112.8,79.1z"/>
		<path d="M163.6,221.3V79.1h46.5c15.4,0,27,3.2,34.8,9.6c7.8,6.4,11.7,15.8,11.7,28.3c0,6.6-1.9,12.5-5.7,17.6
			c-3.8,5.1-8.9,9.1-15.4,11.9c7.7,2.1,13.8,6.2,18.2,12.3c4.5,6,6.7,13.2,6.7,21.5c0,12.8-4.1,22.8-12.4,30.1
			c-8.3,7.3-20,10.9-35.1,10.9L163.6,221.3L163.6,221.3z M182.4,139.7h28.3c8.2,0,14.8-2.1,19.7-6.2c4.9-4.1,7.4-9.7,7.4-16.7
			c0-7.8-2.3-13.5-6.8-17.1c-4.6-3.6-11.5-5.3-20.8-5.3h-27.7L182.4,139.7L182.4,139.7z M182.4,154.8V206h31
			c8.7,0,15.6-2.3,20.7-6.8c5-4.5,7.6-10.8,7.6-18.7c0-17.1-9.3-25.7-27.9-25.7L182.4,154.8L182.4,154.8z"/>
	</g>
</g>
</svg>
